# xmcd
#
# Track frame offsets:
#	188
#	9838
#	23070
#	33805
#	45400
#	59565
#	71533
#	81610
#	91113
#	104663
#	117635
#	128135
#	141440
#	154295
#
# Disc length: 2225
#
# Revision: 1
# Processed by: cddbd v1.5.1PL0 Copyright (c) Steve Scherf et al.
# Submitted via: ExactAudioCopy v0.95a3
# Normalized: r0:TDELIM( - )
#
DISCID=bd08af0e
DTITLE=Various Artist - Country No 1s Vol 2 CD 2
DYEAR=1989
DGENRE=Country
TTITLE0=Elvis Presley - Heartbreak Hotel
TTITLE1=Hank Locklin - Please help me I'm falling
TTITLE2=Jim Reeves - He'll have to go
TTITLE3=Porter Wagoner - Misery loves company
TTITLE4=Charley Pride - I'm so afraid of loving you again
TTITLE5=Eddy Arnold - Make the world go away
TTITLE6=George Hamilton IV - Abilene
TTITLE7=Jim Reeves - Billy Bayou
TTITLE8=Pee Wee King - Slow Poke
TTITLE9=Eddy Arnold - Just a little lovin'
TTITLE10=Connie Smith - Once a day
TTITLE11=Hank Snow - I don't hurt anymore
TTITLE12=The Browns - The Tree Bells
TTITLE13=Porter Wagoner - A satisfied mind
EXTD=
EXTT0=
EXTT1=
EXTT2=
EXTT3=
EXTT4=
EXTT5=
EXTT6=
EXTT7=
EXTT8=
EXTT9=
EXTT10=
EXTT11=
EXTT12=
EXTT13=
PLAYORDER=
